<svg xmlns="http://www.w3.org/2000/svg" xmlns:xlink="http://www.w3.org/1999/xlink" viewBox="0 0 120.15 111.72"><defs><clipPath id="a"><path d="M58.27,11.46a2.08,2.08,0,1,0,1.17-.36,2,2,0,0,0-1.17.36" fill="#d4bc7c"/></clipPath></defs><title>Asset 1</title><path d="M75.94,6A23.55,23.55,0,0,1,59.41,0S52.47,6.77,42.82,6.11l.07,21.05s-.72,12.22,16.59,16c0,0,16.51-3.12,16.53-16.13C76,24.17,75.85,19.55,75.94,6ZM59.55,41.45c-15-3.68-14.82-14.24-14.82-14.24-.16-4.69-.11-19.59-.11-19.59C54.23,7.4,59.42,2,59.42,2a22.54,22.54,0,0,0,14.74,5.5c0,12.36,0,16.88.06,19.53C74.45,38.07,59.55,41.45,59.55,41.45Z" fill="#d4bc7c" fill-rule="evenodd"/><path d="M61.16,12a2.08,2.08,0,1,1-2.89-.55,2.08,2.08,0,0,1,2.89.55" fill="#d4bc7c" fill-rule="evenodd"/><path d="M58.27,11.46a2.08,2.08,0,1,0,1.17-.36,2,2,0,0,0-1.17.36" fill="#d4bc7c"/><g clip-path="url(#a)"><rect x="57.06" y="11.09" width="4.75" height="4.47" transform="translate(-0.04 0.2) rotate(-0.19)" fill="#d4bc7c"/></g><path d="M46.85,28.1a3.46,3.46,0,0,1,3.06-3.76,5.87,5.87,0,0,1,5.82,2.28,14.35,14.35,0,0,1,1.58,3.16c-1.16-5.2-3.92-8.32-7-12.34a5.66,5.66,0,0,1-.81-5,3.67,3.67,0,0,1,1.95.71,5.07,5.07,0,0,1,3.66-6,10.65,10.65,0,0,1,3.11-.33c.14,0,0,.13-.16.18a4.88,4.88,0,0,0-2.71,4.33,20.22,20.22,0,0,0,1.22,8.32c1.25,4.05,1.58,9.43,1.69,14.8.14,6.94,0,6.72-.09,6.7a3.56,3.56,0,0,1-.81-.17c0-2.56.18-8.18-1-11-.54-1.32-3-3.2-4.92-2.29a1.91,1.91,0,0,0-1,2.11A1.26,1.26,0,0,0,51.73,31c.15,0,.32-.05.48-.06-.29,1-5.44.64-5.36-2.88" fill="#d4bc7c"/><path d="M46.85,28.1a3.46,3.46,0,0,1,3.06-3.76,5.87,5.87,0,0,1,5.82,2.28,14.35,14.35,0,0,1,1.58,3.16c-1.16-5.2-3.92-8.32-7-12.34a5.66,5.66,0,0,1-.81-5,3.67,3.67,0,0,1,1.95.71,5.07,5.07,0,0,1,3.66-6,10.65,10.65,0,0,1,3.11-.33c.14,0,0,.13-.16.18a4.88,4.88,0,0,0-2.71,4.33,20.22,20.22,0,0,0,1.22,8.32c1.25,4.05,1.58,9.43,1.69,14.8.14,6.94,0,6.72-.09,6.7a3.56,3.56,0,0,1-.81-.17c0-2.56.18-8.18-1-11-.54-1.32-3-3.2-4.92-2.29a1.91,1.91,0,0,0-1,2.11A1.26,1.26,0,0,0,51.73,31c.15,0,.32-.05.48-.06C51.92,32,46.77,31.62,46.85,28.1Z" fill="#d4bc7c"/><path d="M72.08,28A3.46,3.46,0,0,0,69,24.3a5.86,5.86,0,0,0-5.8,2.31,14.18,14.18,0,0,0-1.56,3.17c1.13-5.21,3.86-8.34,6.92-12.39a5.6,5.6,0,0,0,.78-5,3.56,3.56,0,0,0-1.94.72,5.07,5.07,0,0,0-3.7-6,10.68,10.68,0,0,0-3.11-.31c-.14,0,0,.13.15.18a4.89,4.89,0,0,1,2.75,4.31,20.32,20.32,0,0,1-1.17,8.33c-1.22,4.06-1.51,9.44-1.59,14.81-.09,6.94,0,6.72.14,6.7a3.73,3.73,0,0,0,.8-.18c0-2.56-.23-8.17.88-11,.53-1.31,3-3.21,4.9-2.31a1.89,1.89,0,0,1,1.06,2.1A1.27,1.27,0,0,1,67.22,31L66.74,31c.29,1,5.44.6,5.34-2.92" fill="#d4bc7c"/><path d="M72.08,28A3.46,3.46,0,0,0,69,24.3a5.86,5.86,0,0,0-5.8,2.31,14.18,14.18,0,0,0-1.56,3.17c1.13-5.21,3.86-8.34,6.92-12.39a5.6,5.6,0,0,0,.78-5,3.56,3.56,0,0,0-1.94.72,5.07,5.07,0,0,0-3.7-6,10.68,10.68,0,0,0-3.11-.31c-.14,0,0,.13.15.18a4.89,4.89,0,0,1,2.75,4.31,20.32,20.32,0,0,1-1.17,8.33c-1.22,4.06-1.51,9.44-1.59,14.81-.09,6.94,0,6.72.14,6.7a3.73,3.73,0,0,0,.8-.18c0-2.56-.23-8.17.88-11,.53-1.31,3-3.21,4.9-2.31a1.89,1.89,0,0,1,1.06,2.1A1.27,1.27,0,0,1,67.22,31L66.74,31c.29,1,5.44.6,5.34-2.92" fill="#d4bc7c"/><path d="M72.08,28A3.46,3.46,0,0,0,69,24.3a5.86,5.86,0,0,0-5.8,2.31,14.18,14.18,0,0,0-1.56,3.17c1.13-5.21,3.86-8.34,6.92-12.39a5.6,5.6,0,0,0,.78-5,3.56,3.56,0,0,0-1.94.72,5.07,5.07,0,0,0-3.7-6,10.68,10.68,0,0,0-3.11-.31c-.14,0,0,.13.15.18a4.89,4.89,0,0,1,2.75,4.31,20.32,20.32,0,0,1-1.17,8.33c-1.22,4.06-1.51,9.44-1.59,14.81-.09,6.94,0,6.72.14,6.7a3.73,3.73,0,0,0,.8-.18c0-2.56-.23-8.17.88-11,.53-1.31,3-3.21,4.9-2.31a1.89,1.89,0,0,1,1.06,2.1A1.27,1.27,0,0,1,67.22,31L66.74,31C67,32,72.18,31.55,72.08,28Z" fill="#d4bc7c"/><path d="M35,59.27c-.11-.35-.17-.39-.64-.39H32c-.38,0-.48,0-.59.37l-.53,1.64a5.5,5.5,0,0,0-.34,1.29c0,.19.08.28.45.31l.51,0a.24.24,0,0,1,0,.38c-.4,0-.88,0-1.61,0-.52,0-1.08,0-1.5,0a.3.3,0,0,1,0-.38l.51-.05a1,1,0,0,0,.93-.77c.28-.71.71-1.73,1.36-3.47l1.57-4.21a2.14,2.14,0,0,0,.26-1.1,1.68,1.68,0,0,0,.81-.6.23.23,0,0,1,.24.14c.2.69.45,1.4.69,2.08l2.15,6.25c.45,1.34.66,1.57,1.33,1.65l.42,0a.3.3,0,0,1,0,.39c-.64,0-1.18,0-1.88,0s-1.34,0-1.79.05a.27.27,0,0,1,0-.39l.46,0c.32,0,.54-.13.54-.29a3,3,0,0,0-.21-.82Zm-3.08-1.38c-.13.36-.11.38.33.37h1.91c.45,0,.48-.07.34-.48l-.85-2.54c-.12-.37-.27-.79-.36-1h0a9.8,9.8,0,0,0-.37.92Z" fill="#d4bc7c"/><path d="M35,59.27c-.11-.35-.17-.39-.64-.39H32c-.38,0-.48,0-.59.37l-.53,1.64a5.5,5.5,0,0,0-.34,1.29c0,.19.08.28.45.31l.51,0a.24.24,0,0,1,0,.38c-.4,0-.88,0-1.61,0-.52,0-1.08,0-1.5,0a.3.3,0,0,1,0-.38l.51-.05a1,1,0,0,0,.93-.77c.28-.71.71-1.73,1.36-3.47l1.57-4.21a2.14,2.14,0,0,0,.26-1.1,1.68,1.68,0,0,0,.81-.6.23.23,0,0,1,.24.14c.2.69.45,1.4.69,2.08l2.15,6.25c.45,1.34.66,1.57,1.33,1.65l.42,0a.3.3,0,0,1,0,.39c-.64,0-1.18,0-1.88,0s-1.34,0-1.79.05a.27.27,0,0,1,0-.39l.46,0c.32,0,.54-.13.54-.29a3,3,0,0,0-.21-.82Zm-3.08-1.38c-.13.36-.11.38.33.37h1.91c.45,0,.48-.07.34-.48l-.85-2.54c-.12-.37-.27-.79-.36-1h0a9.8,9.8,0,0,0-.37.92Z" fill="#d4bc7c"/><path d="M46.63,57.3a9.33,9.33,0,0,0-.25-2.68.84.84,0,0,0-.65-.27l-.32,0a.24.24,0,0,1,0-.32c.49,0,1,0,1.48,0s.89,0,1.36,0a.23.23,0,0,1,0,.32l-.31,0c-.33,0-.59.15-.65.32a10.63,10.63,0,0,0-.17,2.64v1.47a4.46,4.46,0,0,1-.9,3.1,3.39,3.39,0,0,1-2.47,1,3.69,3.69,0,0,1-2.42-.7c-.69-.57-1-1.52-1-3.06V56c0-1.35,0-1.57-.78-1.63l-.32,0a.24.24,0,0,1,0-.32c.65,0,1.09,0,1.61,0s1,0,1.59,0c.08,0,.11.26,0,.31l-.31,0c-.75.07-.78.29-.77,1.64v2.8c0,2.08.65,3.46,2.64,3.45s2.59-1.49,2.58-3.46Z" fill="#d4bc7c"/><path d="M46.63,57.3a9.33,9.33,0,0,0-.25-2.68.84.84,0,0,0-.65-.27l-.32,0a.24.24,0,0,1,0-.32c.49,0,1,0,1.48,0s.89,0,1.36,0a.23.23,0,0,1,0,.32l-.31,0c-.33,0-.59.15-.65.32a10.63,10.63,0,0,0-.17,2.64v1.47a4.46,4.46,0,0,1-.9,3.1,3.39,3.39,0,0,1-2.47,1,3.69,3.69,0,0,1-2.42-.7c-.69-.57-1-1.52-1-3.06V56c0-1.35,0-1.57-.78-1.63l-.32,0a.24.24,0,0,1,0-.32c.65,0,1.09,0,1.61,0s1,0,1.59,0c.08,0,.11.26,0,.31l-.31,0c-.75.07-.78.29-.77,1.64v2.8c0,2.08.65,3.46,2.64,3.45s2.59-1.49,2.58-3.46Z" fill="#d4bc7c"/><path d="M50.51,55.72c0-1-.06-1.19-.64-1.25l-.42,0a.21.21,0,0,1,0-.33c.7-.06,1.58-.1,2.78-.11a4.9,4.9,0,0,1,2.18.36,1.7,1.7,0,0,1,1,1.62,1.86,1.86,0,0,1-1.32,1.77c0,.13.11.17.25.2A2.15,2.15,0,0,1,56.1,60.1c0,1.5-1.11,2.52-3.44,2.52-.38,0-1,0-1.56,0s-1,0-1.49,0a.24.24,0,0,1,0-.32l.24,0c.68-.11.71-.26.7-1.62Zm1.07,1.72c0,.37,0,.39.67.36,1.32,0,2-.45,2-1.66a1.72,1.72,0,0,0-1.94-1.75,1.82,1.82,0,0,0-.59.08c-.13,0-.18.11-.18.34Zm0,3a2.57,2.57,0,0,0,.27,1.41,1.27,1.27,0,0,0,1,.36c1.15,0,2-.52,2-1.82,0-1-.53-2.22-2.59-2.21-.7,0-.75.08-.75.34Z" fill="#d4bc7c"/><path d="M50.51,55.72c0-1-.06-1.19-.64-1.25l-.42,0a.21.21,0,0,1,0-.33c.7-.06,1.58-.1,2.78-.11a4.9,4.9,0,0,1,2.18.36,1.7,1.7,0,0,1,1,1.62,1.86,1.86,0,0,1-1.32,1.77c0,.13.11.17.25.2A2.15,2.15,0,0,1,56.1,60.1c0,1.5-1.11,2.52-3.44,2.52-.38,0-1,0-1.56,0s-1,0-1.49,0a.24.24,0,0,1,0-.32l.24,0c.68-.11.71-.26.7-1.62Zm1.07,1.72c0,.37,0,.39.67.36,1.32,0,2-.45,2-1.66a1.72,1.72,0,0,0-1.94-1.75,1.82,1.82,0,0,0-.59.08c-.13,0-.18.11-.18.34Zm0,3a2.57,2.57,0,0,0,.27,1.41,1.27,1.27,0,0,0,1,.36c1.15,0,2-.52,2-1.82,0-1-.53-2.22-2.59-2.21-.7,0-.75.08-.75.34Z" fill="#d4bc7c"/><path d="M58.74,56c0-1.34,0-1.54-.8-1.63l-.2,0c-.08,0-.06-.29,0-.33l.78,0h3.19a15.88,15.88,0,0,0,1.75,0,14,14,0,0,1,.21,1.73.24.24,0,0,1-.32,0c-.2-.6-.32-1.06-1-1.22a5.81,5.81,0,0,0-1.26-.08h-.93c-.39,0-.39,0-.39.52v2.59c0,.36,0,.36.43.36H61a4.85,4.85,0,0,0,1.1-.08c.15-.06.25-.13.31-.46l.1-.53c.07-.08.29-.08.34,0,0,.31-.05.82-.05,1.31s.06,1,.06,1.24c-.05.1-.27.1-.34,0l-.12-.51a.55.55,0,0,0-.4-.49,4.53,4.53,0,0,0-1-.06h-.75c-.39,0-.43,0-.43.36v1.82c0,.69,0,1.13.25,1.35s.43.3,1.57.29A3.66,3.66,0,0,0,63.3,62a3.19,3.19,0,0,0,.91-1.26.26.26,0,0,1,.33.09A11,11,0,0,1,64,62.59c-.58,0-1.17,0-1.74,0h-2.9l-1.76,0a.25.25,0,0,1,0-.33l.43,0c.74-.06.8-.26.8-1.62Z" fill="#d4bc7c"/><path d="M58.74,56c0-1.34,0-1.54-.8-1.63l-.2,0c-.08,0-.06-.29,0-.33l.78,0h3.19a15.88,15.88,0,0,0,1.75,0,14,14,0,0,1,.21,1.73.24.24,0,0,1-.32,0c-.2-.6-.32-1.06-1-1.22a5.81,5.81,0,0,0-1.26-.08h-.93c-.39,0-.39,0-.39.52v2.59c0,.36,0,.36.43.36H61a4.85,4.85,0,0,0,1.1-.08c.15-.06.25-.13.31-.46l.1-.53c.07-.08.29-.08.34,0,0,.31-.05.82-.05,1.31s.06,1,.06,1.24c-.05.1-.27.1-.34,0l-.12-.51a.55.55,0,0,0-.4-.49,4.53,4.53,0,0,0-1-.06h-.75c-.39,0-.43,0-.43.36v1.82c0,.69,0,1.13.25,1.35s.43.3,1.57.29A3.66,3.66,0,0,0,63.3,62a3.19,3.19,0,0,0,.91-1.26.26.26,0,0,1,.33.09A11,11,0,0,1,64,62.59c-.58,0-1.17,0-1.74,0h-2.9l-1.76,0a.25.25,0,0,1,0-.33l.43,0c.74-.06.8-.26.8-1.62Z" fill="#d4bc7c"/><path d="M66.7,55.94c0-1.23,0-1.45-.57-1.51l-.42,0a.23.23,0,0,1,0-.33c.73-.07,1.62-.11,2.89-.11a4.66,4.66,0,0,1,2.17.38,1.92,1.92,0,0,1,1.08,1.81,2.41,2.41,0,0,1-1.61,2.17c-.07.08,0,.21.06.31a14.12,14.12,0,0,0,2.62,3.44,1.49,1.49,0,0,0,.89.36.11.11,0,0,1,0,.18,2,2,0,0,1-.57.07c-1.1,0-1.77-.32-2.69-1.62-.34-.48-.87-1.38-1.28-2a.93.93,0,0,0-.92-.41c-.58,0-.61,0-.61.29v1.63c0,1.36,0,1.52.78,1.62l.27,0a.24.24,0,0,1,0,.32c-.58,0-1,0-1.54,0s-1,0-1.62,0a.24.24,0,0,1,0-.32l.32,0c.75-.1.78-.27.78-1.63Zm1.07,1.85a1,1,0,0,0,0,.43s.23.06.9.06A2.14,2.14,0,0,0,70,57.94a1.86,1.86,0,0,0,.64-1.61,1.91,1.91,0,0,0-2.08-2c-.8,0-.84.06-.84.42Z" fill="#d4bc7c"/><path d="M66.7,55.94c0-1.23,0-1.45-.57-1.51l-.42,0a.23.23,0,0,1,0-.33c.73-.07,1.62-.11,2.89-.11a4.66,4.66,0,0,1,2.17.38,1.92,1.92,0,0,1,1.08,1.81,2.41,2.41,0,0,1-1.61,2.17c-.07.08,0,.21.06.31a14.12,14.12,0,0,0,2.62,3.44,1.49,1.49,0,0,0,.89.36.11.11,0,0,1,0,.18,2,2,0,0,1-.57.07c-1.1,0-1.77-.32-2.69-1.62-.34-.48-.87-1.38-1.28-2a.93.93,0,0,0-.92-.41c-.58,0-.61,0-.61.29v1.63c0,1.36,0,1.52.78,1.62l.27,0a.24.24,0,0,1,0,.32c-.58,0-1,0-1.54,0s-1,0-1.62,0a.24.24,0,0,1,0-.32l.32,0c.75-.1.78-.27.78-1.63Zm1.07,1.85a1,1,0,0,0,0,.43s.23.06.9.06A2.14,2.14,0,0,0,70,57.94a1.86,1.86,0,0,0,.64-1.61,1.91,1.91,0,0,0-2.08-2c-.8,0-.84.06-.84.42Z" fill="#d4bc7c"/><path d="M81.74,61.17c0,.52.08.83.32.92a.1.1,0,0,1,0,.15,3.36,3.36,0,0,0-.63.12,10.85,10.85,0,0,1-2.32.35,5.42,5.42,0,0,1-4-1.43,4.08,4.08,0,0,1-1.2-2.94,4.45,4.45,0,0,1,1.16-3.07,5.29,5.29,0,0,1,4.1-1.53,7.52,7.52,0,0,1,1.65.18,3.3,3.3,0,0,0,.8.12,14.2,14.2,0,0,0,.2,1.88c0,.1-.27.12-.35,0a2.36,2.36,0,0,0-2.66-1.83,3.42,3.42,0,0,0-3.6,3.74c0,2.49,1.29,4.44,3.9,4.43.8,0,1.28-.17,1.42-.39a1.4,1.4,0,0,0,.13-.74v-.52c0-1.09-.05-1.16-.85-1.25l-.57-.07a.22.22,0,0,1,0-.32c.38,0,1.09,0,1.85,0,.51,0,1,0,1.38,0a.22.22,0,0,1,0,.32l-.21,0c-.54.07-.55.43-.55,1.09Z" fill="#d4bc7c"/><path d="M81.74,61.17c0,.52.08.83.32.92a.1.1,0,0,1,0,.15,3.36,3.36,0,0,0-.63.12,10.85,10.85,0,0,1-2.32.35,5.42,5.42,0,0,1-4-1.43,4.08,4.08,0,0,1-1.2-2.94,4.45,4.45,0,0,1,1.16-3.07,5.29,5.29,0,0,1,4.1-1.53,7.52,7.52,0,0,1,1.65.18,3.3,3.3,0,0,0,.8.12,14.2,14.2,0,0,0,.2,1.88c0,.1-.27.12-.35,0a2.36,2.36,0,0,0-2.66-1.83,3.42,3.42,0,0,0-3.6,3.74c0,2.49,1.29,4.44,3.9,4.43.8,0,1.28-.17,1.42-.39a1.4,1.4,0,0,0,.13-.74v-.52c0-1.09-.05-1.16-.85-1.25l-.57-.07a.22.22,0,0,1,0-.32c.38,0,1.09,0,1.85,0,.51,0,1,0,1.38,0a.22.22,0,0,1,0,.32l-.21,0c-.54.07-.55.43-.55,1.09Z" fill="#d4bc7c"/><path d="M85.06,55.87c0-1.35,0-1.54-.8-1.63l-.21,0a.26.26,0,0,1,0-.32l.78,0h3.19a17,17,0,0,0,1.75,0A15.73,15.73,0,0,1,90,55.59a.26.26,0,0,1-.33,0c-.19-.61-.31-1.06-1-1.23a6.61,6.61,0,0,0-1.25-.07H86.5c-.38,0-.38,0-.38.52v2.59c0,.37,0,.37.42.36h.76a4.91,4.91,0,0,0,1.1-.08c.15-.05.24-.13.31-.45l.1-.54c.07-.07.28-.08.34,0,0,.31,0,.81,0,1.3s0,1,.06,1.25a.26.26,0,0,1-.34,0l-.12-.5a.56.56,0,0,0-.4-.49,4.39,4.39,0,0,0-1-.07h-.75c-.39,0-.43,0-.43.35v1.83c0,.68,0,1.12.25,1.34s.43.3,1.57.3a3.93,3.93,0,0,0,1.65-.2,3.17,3.17,0,0,0,.92-1.26.23.23,0,0,1,.32.09,11.17,11.17,0,0,1-.57,1.8l-1.74,0h-2.9c-.56,0-1,0-1.76,0a.24.24,0,0,1,0-.32l.42,0c.74-.07.81-.27.8-1.63Z" fill="#d4bc7c"/><path d="M85.06,55.87c0-1.35,0-1.54-.8-1.63l-.21,0a.26.26,0,0,1,0-.32l.78,0h3.19a17,17,0,0,0,1.75,0A15.73,15.73,0,0,1,90,55.59a.26.26,0,0,1-.33,0c-.19-.61-.31-1.06-1-1.23a6.61,6.61,0,0,0-1.25-.07H86.5c-.38,0-.38,0-.38.52v2.59c0,.37,0,.37.42.36h.76a4.91,4.91,0,0,0,1.1-.08c.15-.05.24-.13.31-.45l.1-.54c.07-.07.28-.08.34,0,0,.31,0,.81,0,1.3s0,1,.06,1.25a.26.26,0,0,1-.34,0l-.12-.5a.56.56,0,0,0-.4-.49,4.39,4.39,0,0,0-1-.07h-.75c-.39,0-.43,0-.43.35v1.83c0,.68,0,1.12.25,1.34s.43.3,1.57.3a3.93,3.93,0,0,0,1.65-.2,3.17,3.17,0,0,0,.92-1.26.23.23,0,0,1,.32.09,11.17,11.17,0,0,1-.57,1.8l-1.74,0h-2.9c-.56,0-1,0-1.76,0a.24.24,0,0,1,0-.32l.42,0c.74-.07.81-.27.8-1.63Z" fill="#d4bc7c"/><path d="M1.1,72.5c0-.91-.07-1.18-.61-1.25l-.29,0a.2.2,0,0,1,0-.33c1.1-.06,2.16-.11,3.26-.11a8.14,8.14,0,0,1,2.85.38A3.87,3.87,0,0,1,9,75a4.24,4.24,0,0,1-2.25,3.87,6.32,6.32,0,0,1-2.9.64c-.42,0-.83,0-1.2,0s-.68,0-.92,0c-.54,0-1,0-1.62,0a.25.25,0,0,1,0-.32l.29,0c.76-.11.78-.26.78-1.62Zm1.08,4.62a2.42,2.42,0,0,0,.26,1.42c.29.4.78.53,1.6.52,2.51,0,3.64-1.65,3.63-4.07,0-1.42-.7-3.83-4.1-3.82a2.78,2.78,0,0,0-1.28.19c-.1.07-.13.4-.13,1Z" fill="#d4bc7c"/><path d="M1.1,72.5c0-.91-.07-1.18-.61-1.25l-.29,0a.2.2,0,0,1,0-.33c1.1-.06,2.16-.11,3.26-.11a8.14,8.14,0,0,1,2.85.38A3.87,3.87,0,0,1,9,75a4.24,4.24,0,0,1-2.25,3.87,6.32,6.32,0,0,1-2.9.64c-.42,0-.83,0-1.2,0s-.68,0-.92,0c-.54,0-1,0-1.62,0a.25.25,0,0,1,0-.32l.29,0c.76-.11.78-.26.78-1.62Zm1.08,4.62a2.42,2.42,0,0,0,.26,1.42c.29.4.78.53,1.6.52,2.51,0,3.64-1.65,3.63-4.07,0-1.42-.7-3.83-4.1-3.82a2.78,2.78,0,0,0-1.28.19c-.1.07-.13.4-.13,1Z" fill="#d4bc7c"/><path d="M17.79,74a9,9,0,0,0-.26-2.68.82.82,0,0,0-.64-.27l-.33,0a.23.23,0,0,1,0-.31c.49,0,1,0,1.47,0s.9,0,1.37,0a.22.22,0,0,1,0,.31l-.31,0a.77.77,0,0,0-.65.32A11.17,11.17,0,0,0,18.32,74v1.47a4.55,4.55,0,0,1-.9,3.1,3.42,3.42,0,0,1-2.47,1,3.66,3.66,0,0,1-2.43-.7c-.69-.57-1-1.52-1-3.06V72.71c0-1.35,0-1.57-.78-1.63l-.33,0c-.08,0-.05-.27,0-.32.64,0,1.08,0,1.6,0s1,0,1.6,0c.08,0,.1.25,0,.31l-.31,0c-.75.07-.77.29-.77,1.64v2.8c0,2.09.66,3.46,2.64,3.45s2.59-1.49,2.58-3.45Z" fill="#d4bc7c"/><path d="M17.79,74a9,9,0,0,0-.26-2.68.82.82,0,0,0-.64-.27l-.33,0a.23.23,0,0,1,0-.31c.49,0,1,0,1.47,0s.9,0,1.37,0a.22.22,0,0,1,0,.31l-.31,0a.77.77,0,0,0-.65.32A11.17,11.17,0,0,0,18.32,74v1.47a4.55,4.55,0,0,1-.9,3.1,3.42,3.42,0,0,1-2.47,1,3.66,3.66,0,0,1-2.43-.7c-.69-.57-1-1.52-1-3.06V72.71c0-1.35,0-1.57-.78-1.63l-.33,0c-.08,0-.05-.27,0-.32.64,0,1.08,0,1.6,0s1,0,1.6,0c.08,0,.1.25,0,.31l-.31,0c-.75.07-.77.29-.77,1.64v2.8c0,2.09.66,3.46,2.64,3.45s2.59-1.49,2.58-3.45Z" fill="#d4bc7c"/><path d="M25.86,71.62c0-1.73-.17-1.91-1.09-2l-.38,0c-.1-.06-.07-.34,0-.39.9,0,1.43.05,2.08,0s1.15,0,1.77,0c.1,0,.13.33,0,.39l-.24,0c-.92.13-.94.35-.94,2l0,5.77a8.83,8.83,0,0,1-.35,3,3.4,3.4,0,0,1-3.06,2.25c-.18,0-.66,0-.67-.33s.24-.71.56-.71a1.75,1.75,0,0,1,.58.09,2.38,2.38,0,0,0,.65.1.67.67,0,0,0,.62-.4,14,14,0,0,0,.4-3.91Z" fill="#d4bc7c"/><path d="M25.86,71.62c0-1.73-.17-1.91-1.09-2l-.38,0c-.1-.06-.07-.34,0-.39.9,0,1.43.05,2.08,0s1.15,0,1.77,0c.1,0,.13.33,0,.39l-.24,0c-.92.13-.94.35-.94,2l0,5.77a8.83,8.83,0,0,1-.35,3,3.4,3.4,0,0,1-3.06,2.25c-.18,0-.66,0-.67-.33s.24-.71.56-.71a1.75,1.75,0,0,1,.58.09,2.38,2.38,0,0,0,.65.1.67.67,0,0,0,.62-.4,14,14,0,0,0,.4-3.91Z" fill="#d4bc7c"/><path d="M31.13,72.66c0-1.35,0-1.54-.8-1.63l-.21,0a.26.26,0,0,1,0-.32c.28,0,.53,0,.78,0a6.2,6.2,0,0,0,.75,0h2.43c.83,0,1.6,0,1.75,0a15.51,15.51,0,0,1,.22,1.73.27.27,0,0,1-.33,0c-.19-.6-.31-1.06-1-1.23a6.61,6.61,0,0,0-1.25-.07h-.94c-.39,0-.39,0-.38.51v2.6c0,.36,0,.36.43.36h.76a4.72,4.72,0,0,0,1.1-.09c.15,0,.24-.13.31-.45l.1-.53a.26.26,0,0,1,.34,0c0,.31,0,.82,0,1.31s0,1,0,1.24c0,.09-.27.09-.33,0l-.12-.51a.56.56,0,0,0-.4-.49,4.64,4.64,0,0,0-1-.06h-.75c-.39,0-.43,0-.43.35v1.83c0,.69,0,1.13.26,1.35s.42.3,1.56.29a3.63,3.63,0,0,0,1.66-.2,3.09,3.09,0,0,0,.92-1.26.23.23,0,0,1,.32.09,12.27,12.27,0,0,1-.57,1.8l-1.74,0h-2.9c-.56,0-1,0-1.77,0a.27.27,0,0,1,0-.33l.42,0c.74-.07.81-.26.8-1.62Z" fill="#d4bc7c"/><path d="M31.13,72.66c0-1.35,0-1.54-.8-1.63l-.21,0a.26.26,0,0,1,0-.32c.28,0,.53,0,.78,0a6.2,6.2,0,0,0,.75,0h2.43c.83,0,1.6,0,1.75,0a15.51,15.51,0,0,1,.22,1.73.27.27,0,0,1-.33,0c-.19-.6-.31-1.06-1-1.23a6.61,6.61,0,0,0-1.25-.07h-.94c-.39,0-.39,0-.38.51v2.6c0,.36,0,.36.43.36h.76a4.72,4.72,0,0,0,1.1-.09c.15,0,.24-.13.31-.45l.1-.53a.26.26,0,0,1,.34,0c0,.31,0,.82,0,1.31s0,1,0,1.24c0,.09-.27.09-.33,0l-.12-.51a.56.56,0,0,0-.4-.49,4.64,4.64,0,0,0-1-.06h-.75c-.39,0-.43,0-.43.35v1.83c0,.69,0,1.13.26,1.35s.42.3,1.56.29a3.63,3.63,0,0,0,1.66-.2,3.09,3.09,0,0,0,.92-1.26.23.23,0,0,1,.32.09,12.27,12.27,0,0,1-.57,1.8l-1.74,0h-2.9c-.56,0-1,0-1.77,0a.27.27,0,0,1,0-.33l.42,0c.74-.07.81-.26.8-1.62Z" fill="#d4bc7c"/><path d="M45.27,73.92A9.33,9.33,0,0,0,45,71.24a.84.84,0,0,0-.65-.27l-.32,0a.23.23,0,0,1,0-.31c.49,0,1,0,1.48,0s.89,0,1.36,0a.23.23,0,0,1,0,.31l-.31,0c-.33,0-.59.15-.65.32a10.2,10.2,0,0,0-.17,2.64v1.47a4.49,4.49,0,0,1-.9,3.1,3.39,3.39,0,0,1-2.47,1,3.68,3.68,0,0,1-2.43-.7c-.69-.57-1-1.52-1-3.06V72.62c0-1.35,0-1.57-.78-1.63l-.32,0c-.08,0-.06-.27,0-.31l1.61,0c.53,0,1,0,1.59,0,.08,0,.11.26,0,.31l-.31,0c-.75.07-.78.29-.77,1.64v2.8c0,2.09.66,3.46,2.65,3.45s2.58-1.49,2.58-3.46Z" fill="#d4bc7c"/><path d="M45.27,73.92A9.33,9.33,0,0,0,45,71.24a.84.84,0,0,0-.65-.27l-.32,0a.23.23,0,0,1,0-.31c.49,0,1,0,1.48,0s.89,0,1.36,0a.23.23,0,0,1,0,.31l-.31,0c-.33,0-.59.15-.65.32a10.2,10.2,0,0,0-.17,2.64v1.47a4.49,4.49,0,0,1-.9,3.1,3.39,3.39,0,0,1-2.47,1,3.68,3.68,0,0,1-2.43-.7c-.69-.57-1-1.52-1-3.06V72.62c0-1.35,0-1.57-.78-1.63l-.32,0c-.08,0-.06-.27,0-.31l1.61,0c.53,0,1,0,1.59,0,.08,0,.11.26,0,.31l-.31,0c-.75.07-.78.29-.77,1.64v2.8c0,2.09.66,3.46,2.65,3.45s2.58-1.49,2.58-3.46Z" fill="#d4bc7c"/><path d="M52.78,72.33c0-.91-.07-1.18-.62-1.25l-.28,0a.2.2,0,0,1,0-.33c1.1-.06,2.15-.11,3.25-.11A8.23,8.23,0,0,1,58,71a3.88,3.88,0,0,1,2.64,3.81,4.22,4.22,0,0,1-2.26,3.87,6.29,6.29,0,0,1-2.9.64c-.41,0-.83,0-1.19,0s-.69,0-.92,0c-.55,0-1,0-1.62,0-.08,0-.11-.24,0-.32l.3,0c.75-.11.78-.26.77-1.62ZM53.85,77a2.47,2.47,0,0,0,.27,1.41c.28.4.78.53,1.59.52,2.52,0,3.64-1.65,3.63-4.06,0-1.43-.7-3.84-4.09-3.83a2.74,2.74,0,0,0-1.28.19c-.11.08-.13.4-.13,1Z" fill="#d4bc7c"/><path d="M52.78,72.33c0-.91-.07-1.18-.62-1.25l-.28,0a.2.2,0,0,1,0-.33c1.1-.06,2.15-.11,3.25-.11A8.23,8.23,0,0,1,58,71a3.88,3.88,0,0,1,2.64,3.81,4.22,4.22,0,0,1-2.26,3.87,6.29,6.29,0,0,1-2.9.64c-.41,0-.83,0-1.19,0s-.69,0-.92,0c-.55,0-1,0-1.62,0-.08,0-.11-.24,0-.32l.3,0c.75-.11.78-.26.77-1.62ZM53.85,77a2.47,2.47,0,0,0,.27,1.41c.28.4.78.53,1.59.52,2.52,0,3.64-1.65,3.63-4.06,0-1.43-.7-3.84-4.09-3.83a2.74,2.74,0,0,0-1.28.19c-.11.08-.13.4-.13,1Z" fill="#d4bc7c"/><path d="M63.28,72.56c0-1.35,0-1.55-.8-1.63l-.21,0a.26.26,0,0,1,0-.32l.78,0h3.19a17.08,17.08,0,0,0,1.75,0c.07.22.15,1.15.21,1.72a.26.26,0,0,1-.33,0c-.19-.61-.31-1.06-1-1.23A6,6,0,0,0,65.66,71h-.93c-.39,0-.39,0-.39.52v2.59c0,.37,0,.36.42.36h.76a4.91,4.91,0,0,0,1.1-.08c.15-.05.24-.13.31-.46l.1-.53a.26.26,0,0,1,.34,0c0,.32,0,.82,0,1.31s0,1,.06,1.25a.26.26,0,0,1-.34,0l-.12-.5a.56.56,0,0,0-.4-.5,4.64,4.64,0,0,0-1-.06h-.75c-.39,0-.43,0-.43.35v1.83c0,.68,0,1.12.25,1.34s.43.3,1.57.3a3.93,3.93,0,0,0,1.65-.2,3.17,3.17,0,0,0,.92-1.26.23.23,0,0,1,.32.09,12.27,12.27,0,0,1-.57,1.8l-1.74,0h-2.9l-1.77,0a.25.25,0,0,1,0-.32l.42,0c.74-.07.81-.27.8-1.63Z" fill="#d4bc7c"/><path d="M63.28,72.56c0-1.35,0-1.55-.8-1.63l-.21,0a.26.26,0,0,1,0-.32l.78,0h3.19a17.08,17.08,0,0,0,1.75,0c.07.22.15,1.15.21,1.72a.26.26,0,0,1-.33,0c-.19-.61-.31-1.06-1-1.23A6,6,0,0,0,65.66,71h-.93c-.39,0-.39,0-.39.52v2.59c0,.37,0,.36.42.36h.76a4.91,4.91,0,0,0,1.1-.08c.15-.05.24-.13.31-.46l.1-.53a.26.26,0,0,1,.34,0c0,.32,0,.82,0,1.31s0,1,.06,1.25a.26.26,0,0,1-.34,0l-.12-.5a.56.56,0,0,0-.4-.5,4.64,4.64,0,0,0-1-.06h-.75c-.39,0-.43,0-.43.35v1.83c0,.68,0,1.12.25,1.34s.43.3,1.57.3a3.93,3.93,0,0,0,1.65-.2,3.17,3.17,0,0,0,.92-1.26.23.23,0,0,1,.32.09,12.27,12.27,0,0,1-.57,1.8l-1.74,0h-2.9l-1.77,0a.25.25,0,0,1,0-.32l.42,0c.74-.07.81-.27.8-1.63Z" fill="#d4bc7c"/><path d="M76.49,77c0,1.64,0,1.84,1,1.94l.42.05a.29.29,0,0,1,0,.39c-.88,0-1.4,0-2,0s-1.21,0-1.9,0c-.09,0-.12-.29,0-.39l.33,0c.9-.13.93-.32.93-2l0-5.74c0-1.32,0-1.6-.74-1.66l-.56-.07a.26.26,0,0,1,0-.39A26.14,26.14,0,0,1,77,69a5.67,5.67,0,0,1,3,.61A2.68,2.68,0,0,1,81.25,72a2.65,2.65,0,0,1-1.55,2.48,5.33,5.33,0,0,1-2.14.48c-.11,0-.11-.28,0-.32A2.42,2.42,0,0,0,79.82,72a2.29,2.29,0,0,0-2.51-2.48c-.83,0-.84.07-.84.56Z" fill="#d4bc7c"/><path d="M76.49,77c0,1.64,0,1.84,1,1.94l.42.05a.29.29,0,0,1,0,.39c-.88,0-1.4,0-2,0s-1.21,0-1.9,0c-.09,0-.12-.29,0-.39l.33,0c.9-.13.93-.32.93-2l0-5.74c0-1.32,0-1.6-.74-1.66l-.56-.07a.26.26,0,0,1,0-.39A26.14,26.14,0,0,1,77,69a5.67,5.67,0,0,1,3,.61A2.68,2.68,0,0,1,81.25,72a2.65,2.65,0,0,1-1.55,2.48,5.33,5.33,0,0,1-2.14.48c-.11,0-.11-.28,0-.32A2.42,2.42,0,0,0,79.82,72a2.29,2.29,0,0,0-2.51-2.48c-.83,0-.84.07-.84.56Z" fill="#d4bc7c"/><path d="M87.5,76.08c-.09-.28-.14-.32-.53-.32H85c-.33,0-.41,0-.5.32l-.45,1.36a5,5,0,0,0-.28,1.08c0,.15.07.23.38.25l.43,0a.21.21,0,0,1,0,.33c-.34,0-.74,0-1.35,0-.42,0-.89,0-1.24,0a.24.24,0,0,1,0-.32l.43,0a.87.87,0,0,0,.78-.64c.23-.59.59-1.44,1.13-2.89l1.31-3.51a1.8,1.8,0,0,0,.21-.92,1.45,1.45,0,0,0,.68-.49.18.18,0,0,1,.19.11c.17.57.38,1.17.58,1.74l1.79,5.21c.38,1.11.55,1.3,1.11,1.36l.35,0c.09.07.06.27,0,.33-.53,0-1,0-1.57,0s-1.12,0-1.49,0a.22.22,0,0,1,0-.33l.38,0c.27,0,.45-.1.45-.23a2.45,2.45,0,0,0-.17-.69Zm-2.57-1.15c-.1.3-.09.32.28.31H86.8c.38,0,.4,0,.28-.4l-.7-2.11c-.11-.32-.22-.66-.3-.82h0a7.81,7.81,0,0,0-.31.77Z" fill="#d4bc7c"/><path d="M87.5,76.08c-.09-.28-.14-.32-.53-.32H85c-.33,0-.41,0-.5.32l-.45,1.36a5,5,0,0,0-.28,1.08c0,.15.07.23.38.25l.43,0a.21.21,0,0,1,0,.33c-.34,0-.74,0-1.35,0-.42,0-.89,0-1.24,0a.24.24,0,0,1,0-.32l.43,0a.87.87,0,0,0,.78-.64c.23-.59.59-1.44,1.13-2.89l1.31-3.51a1.8,1.8,0,0,0,.21-.92,1.45,1.45,0,0,0,.68-.49.18.18,0,0,1,.19.11c.17.57.38,1.17.58,1.74l1.79,5.21c.38,1.11.55,1.3,1.11,1.36l.35,0c.09.07.06.27,0,.33-.53,0-1,0-1.57,0s-1.12,0-1.49,0a.22.22,0,0,1,0-.33l.38,0c.27,0,.45-.1.45-.23a2.45,2.45,0,0,0-.17-.69Zm-2.57-1.15c-.1.3-.09.32.28.31H86.8c.38,0,.4,0,.28-.4l-.7-2.11c-.11-.32-.22-.66-.3-.82h0a7.81,7.81,0,0,0-.31.77Z" fill="#d4bc7c"/><path d="M98.27,73.75A9,9,0,0,0,98,71.07c-.09-.16-.32-.25-.65-.27l-.32,0a.23.23,0,0,1,0-.31c.49,0,1,0,1.47,0s.9,0,1.37,0a.22.22,0,0,1,0,.31l-.31,0c-.32,0-.58.15-.64.31a10.67,10.67,0,0,0-.18,2.65v1.46a4.53,4.53,0,0,1-.9,3.1,3.37,3.37,0,0,1-2.47,1A3.67,3.67,0,0,1,93,78.56c-.69-.56-1-1.51-1-3V72.45c0-1.35,0-1.57-.79-1.63l-.32,0c-.08-.05-.05-.27,0-.31.64,0,1.08,0,1.6,0s1,0,1.6,0a.24.24,0,0,1,0,.31l-.32,0c-.75.07-.77.29-.77,1.64v2.8c0,2.08.66,3.45,2.64,3.45s2.59-1.49,2.58-3.46Z" fill="#d4bc7c"/><path d="M98.27,73.75A9,9,0,0,0,98,71.07c-.09-.16-.32-.25-.65-.27l-.32,0a.23.23,0,0,1,0-.31c.49,0,1,0,1.47,0s.9,0,1.37,0a.22.22,0,0,1,0,.31l-.31,0c-.32,0-.58.15-.64.31a10.67,10.67,0,0,0-.18,2.65v1.46a4.53,4.53,0,0,1-.9,3.1,3.37,3.37,0,0,1-2.47,1A3.67,3.67,0,0,1,93,78.56c-.69-.56-1-1.51-1-3V72.45c0-1.35,0-1.57-.79-1.63l-.32,0c-.08-.05-.05-.27,0-.31.64,0,1.08,0,1.6,0s1,0,1.6,0a.24.24,0,0,1,0,.31l-.32,0c-.75.07-.77.29-.77,1.64v2.8c0,2.08.66,3.45,2.64,3.45s2.59-1.49,2.58-3.46Z" fill="#d4bc7c"/><path d="M105.54,75.57c.3.6.58,1.2.9,1.77h0c.35-.61.67-1.28,1-2l1.21-2.48a7,7,0,0,0,1-2.49,9.47,9.47,0,0,0,1,0c.33,0,.75,0,1.16,0a.29.29,0,0,1,0,.33l-.27,0c-.82.09-.92.32-.9,1.23,0,1.37,0,3.77.16,5.64,0,.65,0,1,.63,1l.42,0a.25.25,0,0,1,0,.33c-.54,0-1.07,0-1.53,0s-1,0-1.57,0a.25.25,0,0,1,0-.33l.38,0c.63-.06.63-.27.63-1.1l-.06-5.41h0c-.1.15-.58,1.19-.84,1.69l-1.15,2.27c-.58,1.15-1.16,2.37-1.39,3a.14.14,0,0,1-.13.06.18.18,0,0,1-.11,0c-.23-.69-.85-2-1.15-2.59L103.65,74c-.27-.6-.55-1.27-.84-1.87h0c-.05.81-.09,1.56-.12,2.31s-.09,2-.08,3.05.08,1.16.58,1.2l.5,0a.22.22,0,0,1,0,.32c-.44,0-.94,0-1.43,0s-.89,0-1.33,0c-.07-.06-.1-.26,0-.32l.28,0c.55-.07.73-.16.8-1.07s.14-1.57.21-2.85c.07-1.07.11-2.18.14-2.89s-.08-1-.88-1.11l-.2,0a.23.23,0,0,1,0-.32l1,0c.3,0,.65,0,1.08,0a4.88,4.88,0,0,0,.68,2.14Z" fill="#d4bc7c"/><path d="M105.54,75.57c.3.6.58,1.2.9,1.77h0c.35-.61.67-1.28,1-2l1.21-2.48a7,7,0,0,0,1-2.49,9.47,9.47,0,0,0,1,0c.33,0,.75,0,1.16,0a.29.29,0,0,1,0,.33l-.27,0c-.82.09-.92.32-.9,1.23,0,1.37,0,3.77.16,5.64,0,.65,0,1,.63,1l.42,0a.25.25,0,0,1,0,.33c-.54,0-1.07,0-1.53,0s-1,0-1.57,0a.25.25,0,0,1,0-.33l.38,0c.63-.06.63-.27.63-1.1l-.06-5.41h0c-.1.15-.58,1.19-.84,1.69l-1.15,2.27c-.58,1.15-1.16,2.37-1.39,3a.14.14,0,0,1-.13.06.18.18,0,0,1-.11,0c-.23-.69-.85-2-1.15-2.59L103.65,74c-.27-.6-.55-1.27-.84-1.87h0c-.05.81-.09,1.56-.12,2.31s-.09,2-.08,3.05.08,1.16.58,1.2l.5,0a.22.22,0,0,1,0,.32c-.44,0-.94,0-1.43,0s-.89,0-1.33,0c-.07-.06-.1-.26,0-.32l.28,0c.55-.07.73-.16.8-1.07s.14-1.57.21-2.85c.07-1.07.11-2.18.14-2.89s-.08-1-.88-1.11l-.2,0a.23.23,0,0,1,0-.32l1,0c.3,0,.65,0,1.08,0a4.88,4.88,0,0,0,.68,2.14Z" fill="#d4bc7c"/><path d="M114.35,72.39c0-1.35,0-1.54-.79-1.63l-.21,0c-.08,0,0-.28,0-.32l.77,0h3.19a16.85,16.85,0,0,0,1.75,0,15.27,15.27,0,0,1,.22,1.72.26.26,0,0,1-.33,0c-.19-.61-.31-1.06-1-1.23a6.73,6.73,0,0,0-1.26-.07h-.93c-.39,0-.39,0-.39.52V74c0,.37,0,.37.43.37h.75a5,5,0,0,0,1.11-.08c.15,0,.24-.13.31-.45l.1-.54c.06-.07.28-.07.33,0,0,.31,0,.81,0,1.31s0,1,0,1.24a.25.25,0,0,1-.33,0l-.12-.5c-.06-.23-.15-.43-.41-.49a3.92,3.92,0,0,0-1-.06h-.76c-.39,0-.42,0-.42.35V77c0,.69,0,1.13.25,1.35s.43.29,1.57.29a4,4,0,0,0,1.66-.2,3.27,3.27,0,0,0,.92-1.26.23.23,0,0,1,.32.09,11.17,11.17,0,0,1-.58,1.8l-1.73,0h-2.91c-.55,0-1,0-1.76,0a.24.24,0,0,1,0-.32l.42,0c.74-.07.81-.26.8-1.62Z" fill="#d4bc7c"/><path d="M114.35,72.39c0-1.35,0-1.54-.79-1.63l-.21,0c-.08,0,0-.28,0-.32l.77,0h3.19a16.85,16.85,0,0,0,1.75,0,15.27,15.27,0,0,1,.22,1.72.26.26,0,0,1-.33,0c-.19-.61-.31-1.06-1-1.23a6.73,6.73,0,0,0-1.26-.07h-.93c-.39,0-.39,0-.39.52V74c0,.37,0,.37.43.37h.75a5,5,0,0,0,1.11-.08c.15,0,.24-.13.31-.45l.1-.54c.06-.07.28-.07.33,0,0,.31,0,.81,0,1.31s0,1,0,1.24a.25.25,0,0,1-.33,0l-.12-.5c-.06-.23-.15-.43-.41-.49a3.92,3.92,0,0,0-1-.06h-.76c-.39,0-.42,0-.42.35V77c0,.69,0,1.13.25,1.35s.43.29,1.57.29a4,4,0,0,0,1.66-.2,3.27,3.27,0,0,0,.92-1.26.23.23,0,0,1,.32.09,11.17,11.17,0,0,1-.58,1.8l-1.73,0h-2.91c-.55,0-1,0-1.76,0a.24.24,0,0,1,0-.32l.42,0c.74-.07.81-.26.8-1.62Z" fill="#d4bc7c"/><path d="M45.85,87.67c-.16.42-.37,1-.47,1.42,0,.09-.25.08-.28,0,.19-.92-.07-1.41-1.16-1.41a3.81,3.81,0,0,0-2.71,1.19A4.88,4.88,0,0,0,40,92c0,1.51.72,2.32,2.06,2.32a2.59,2.59,0,0,0,2.27-1.49c.11,0,.23,0,.26.07a11,11,0,0,1-.68,1.5,5,5,0,0,0-.84.12,6.29,6.29,0,0,1-1,.13,2.67,2.67,0,0,1-3-2.84,4.45,4.45,0,0,1,1.5-3.2,5.35,5.35,0,0,1,3.56-1.3,4.87,4.87,0,0,1,1.73.33" fill="#d4bc7c"/><path d="M45.85,87.67c-.16.42-.37,1-.47,1.42,0,.09-.25.08-.28,0,.19-.92-.07-1.41-1.16-1.41a3.81,3.81,0,0,0-2.71,1.19A4.88,4.88,0,0,0,40,92c0,1.51.72,2.32,2.06,2.32a2.59,2.59,0,0,0,2.27-1.49c.11,0,.23,0,.26.07a11,11,0,0,1-.68,1.5,5,5,0,0,0-.84.12,6.29,6.29,0,0,1-1,.13,2.67,2.67,0,0,1-3-2.84,4.45,4.45,0,0,1,1.5-3.2,5.35,5.35,0,0,1,3.56-1.3A4.87,4.87,0,0,1,45.85,87.67Z" fill="#d4bc7c"/><path d="M49,87c-.21.6-.55,1.56-.76,2.17l-1.08,3.17,0,0a6.48,6.48,0,0,1,1.66-1.75,1.79,1.79,0,0,1,1-.42c.46,0,.63.34.64.71a6.26,6.26,0,0,1-.82,2.48,4,4,0,0,1-.69.87,1.17,1.17,0,0,1-.77.42c-.35,0-.39-.23-.39-.31a.34.34,0,0,1,.28-.34.24.24,0,0,1,.15.06.57.57,0,0,0,.28.14c.16,0,.26-.16.42-.53a11.06,11.06,0,0,0,.75-2.74c0-.2-.07-.31-.22-.31a1.2,1.2,0,0,0-.57.28,6.44,6.44,0,0,0-1.34,1.42,16.34,16.34,0,0,0-1.28,2.21.19.19,0,0,1-.19.12c-.11,0-.4,0-.31-.27l2-6c.23-.7.28-.85.11-1l-.22-.14c0-.06,0-.1,0-.14A5.38,5.38,0,0,1,49,86.91Z" fill="#d4bc7c"/><path d="M49,87c-.21.6-.55,1.56-.76,2.17l-1.08,3.17,0,0a6.48,6.48,0,0,1,1.66-1.75,1.79,1.79,0,0,1,1-.42c.46,0,.63.34.64.71a6.26,6.26,0,0,1-.82,2.48,4,4,0,0,1-.69.87,1.17,1.17,0,0,1-.77.42c-.35,0-.39-.23-.39-.31a.34.34,0,0,1,.28-.34.24.24,0,0,1,.15.06.57.57,0,0,0,.28.14c.16,0,.26-.16.42-.53a11.06,11.06,0,0,0,.75-2.74c0-.2-.07-.31-.22-.31a1.2,1.2,0,0,0-.57.28,6.44,6.44,0,0,0-1.34,1.42,16.34,16.34,0,0,0-1.28,2.21.19.19,0,0,1-.19.12c-.11,0-.4,0-.31-.27l2-6c.23-.7.28-.85.11-1l-.22-.14c0-.06,0-.1,0-.14A5.38,5.38,0,0,1,49,86.91Z" fill="#d4bc7c"/><path d="M55.38,89.9a.44.44,0,0,1,.52.16c-.16.39-1.08,2.73-1.41,3.7-.06.18,0,.24.07.24s.49-.18,1.09-.71a.14.14,0,0,1,.15.13A2.74,2.74,0,0,1,54,94.62a.29.29,0,0,1-.3-.29,1.42,1.42,0,0,1,.1-.41l.35-1h0a4.38,4.38,0,0,1-2.33,1.67c-.3,0-.47-.29-.47-.59a5.75,5.75,0,0,1,2.32-3.43,1.89,1.89,0,0,1,1-.31.45.45,0,0,1,.26.07.55.55,0,0,1,.21.22Zm-1.84,1.21a4.72,4.72,0,0,0-1.32,2.75c0,.13.07.2.16.2s.42-.14,1-.69a5.21,5.21,0,0,0,1.41-2.29.57.57,0,0,0-.53-.38c-.26,0-.43.11-.75.41" fill="#d4bc7c"/><path d="M55.38,89.9a.44.44,0,0,1,.52.16c-.16.39-1.08,2.73-1.41,3.7-.06.18,0,.24.07.24s.49-.18,1.09-.71a.14.14,0,0,1,.15.13A2.74,2.74,0,0,1,54,94.62a.29.29,0,0,1-.3-.29,1.42,1.42,0,0,1,.1-.41l.35-1h0a4.38,4.38,0,0,1-2.33,1.67c-.3,0-.47-.29-.47-.59a5.75,5.75,0,0,1,2.32-3.43,1.89,1.89,0,0,1,1-.31.45.45,0,0,1,.26.07.55.55,0,0,1,.21.22Zm-1.84,1.21a4.72,4.72,0,0,0-1.32,2.75c0,.13.07.2.16.2s.42-.14,1-.69a5.21,5.21,0,0,0,1.41-2.29.57.57,0,0,0-.53-.38C54,90.7,53.86,90.81,53.54,91.11Z" fill="#d4bc7c"/><path d="M58.34,92.42l0,0c.75-1.14,1.8-2.31,2.59-2.32a.53.53,0,0,1,.6.57,3.25,3.25,0,0,1-.17.75c-.19.53-1,2.26-1,2.34s0,.2,0,.2a2.22,2.22,0,0,0,1-.72c.14,0,.17.06.17.15a2.52,2.52,0,0,1-1.82,1.19.32.32,0,0,1-.26-.27c0-.09,0-.17.26-.7s.6-1.56.85-2.08a2.76,2.76,0,0,0,.22-.78c0-.13,0-.25-.17-.25s-.88.53-1.46,1.26a17.26,17.26,0,0,0-1.61,2.7c-.06.09-.1.13-.19.13s-.41,0-.31-.28,1.16-3.19,1.22-3.34.05-.24,0-.24a1.83,1.83,0,0,0-1,.53.14.14,0,0,1-.13-.16,2.26,2.26,0,0,1,1.58-1,.29.29,0,0,1,.28.43Z" fill="#d4bc7c"/><path d="M58.34,92.42l0,0c.75-1.14,1.8-2.31,2.59-2.32a.53.53,0,0,1,.6.57,3.25,3.25,0,0,1-.17.75c-.19.53-1,2.26-1,2.34s0,.2,0,.2a2.22,2.22,0,0,0,1-.72c.14,0,.17.06.17.15a2.52,2.52,0,0,1-1.82,1.19.32.32,0,0,1-.26-.27c0-.09,0-.17.26-.7s.6-1.56.85-2.08a2.76,2.76,0,0,0,.22-.78c0-.13,0-.25-.17-.25s-.88.53-1.46,1.26a17.26,17.26,0,0,0-1.61,2.7c-.06.09-.1.13-.19.13s-.41,0-.31-.28,1.16-3.19,1.22-3.34.05-.24,0-.24a1.83,1.83,0,0,0-1,.53.14.14,0,0,1-.13-.16,2.26,2.26,0,0,1,1.58-1,.29.29,0,0,1,.28.43Z" fill="#d4bc7c"/><path d="M64.82,90.77l-.95,2.79c-.06.2,0,.26.08.26a3.69,3.69,0,0,0,1.2-1c.11,0,.17.07.15.19a3.51,3.51,0,0,1-2,1.54A.32.32,0,0,1,63,94.3a2.12,2.12,0,0,1,.14-.6l1-2.93h-.83a.26.26,0,0,1,.12-.29l.85-.16.59-1a.36.36,0,0,1,.4.07l-.31,1H66.1a.31.31,0,0,1-.13.39Z" fill="#d4bc7c"/><path d="M64.82,90.77l-.95,2.79c-.06.2,0,.26.08.26a3.69,3.69,0,0,0,1.2-1c.11,0,.17.07.15.19a3.51,3.51,0,0,1-2,1.54A.32.32,0,0,1,63,94.3a2.12,2.12,0,0,1,.14-.6l1-2.93h-.83a.26.26,0,0,1,.12-.29l.85-.16.59-1a.36.36,0,0,1,.4.07l-.31,1H66.1a.31.31,0,0,1-.13.39Z" fill="#d4bc7c"/><path d="M68,91c0-.12,0-.2,0-.2a2.46,2.46,0,0,0-.87.56.15.15,0,0,1-.14-.18,3,3,0,0,1,1.74-1.06.25.25,0,0,1,.17.1c.07.07.07.16-.06.47l-1.25,3c0,.11-.05.24,0,.24a2.7,2.7,0,0,0,1.1-.79.16.16,0,0,1,.16.18,3.28,3.28,0,0,1-2,1.26.26.26,0,0,1-.17-.09.27.27,0,0,1,0-.29Zm1.34-3a.65.65,0,0,1-.56.67.38.38,0,0,1-.38-.4c0-.24.16-.67.57-.67a.36.36,0,0,1,.37.4" fill="#d4bc7c"/><path d="M68,91c0-.12,0-.2,0-.2a2.46,2.46,0,0,0-.87.56.15.15,0,0,1-.14-.18,3,3,0,0,1,1.74-1.06.25.25,0,0,1,.17.1c.07.07.07.16-.06.47l-1.25,3c0,.11-.05.24,0,.24a2.7,2.7,0,0,0,1.1-.79.16.16,0,0,1,.16.18,3.28,3.28,0,0,1-2,1.26.26.26,0,0,1-.17-.09.27.27,0,0,1,0-.29Zm1.34-3a.65.65,0,0,1-.56.67.38.38,0,0,1-.38-.4c0-.24.16-.67.57-.67A.36.36,0,0,1,69.29,88Z" fill="#d4bc7c"/><path d="M70.94,93.72c-.08.25-.07.35,0,.35s.73-.52,1.22-1.07c.11,0,.17,0,.17.15a2.37,2.37,0,0,1-1.82,1.41c-.31,0-.41-.15-.41-.32a3.17,3.17,0,0,1,.23-.89l1.67-5c.25-.74.14-.85,0-.92l-.19-.09a.12.12,0,0,1,0-.17,7,7,0,0,1,1.33-.32l.06.07c-.14.38-.24.67-.62,1.82Z" fill="#d4bc7c"/><path d="M70.94,93.72c-.08.25-.07.35,0,.35s.73-.52,1.22-1.07c.11,0,.17,0,.17.15a2.37,2.37,0,0,1-1.82,1.41c-.31,0-.41-.15-.41-.32a3.17,3.17,0,0,1,.23-.89l1.67-5c.25-.74.14-.85,0-.92l-.19-.09a.12.12,0,0,1,0-.17,7,7,0,0,1,1.33-.32l.06.07c-.14.38-.24.67-.62,1.82Z" fill="#d4bc7c"/><path d="M74.18,93.71c-.08.25-.07.35,0,.35S75,93.54,75.44,93c.11,0,.17,0,.17.15-.27.53-.94,1.41-1.81,1.41-.32,0-.42-.15-.42-.31a3.23,3.23,0,0,1,.23-.91l1.67-5c.25-.74.14-.85,0-.92l-.19-.09a.11.11,0,0,1,0-.17,6.94,6.94,0,0,1,1.34-.32l0,.06c-.14.39-.24.68-.62,1.83Z" fill="#d4bc7c"/><path d="M74.18,93.71c-.08.25-.07.35,0,.35S75,93.54,75.44,93c.11,0,.17,0,.17.15-.27.53-.94,1.41-1.81,1.41-.32,0-.42-.15-.42-.31a3.23,3.23,0,0,1,.23-.91l1.67-5c.25-.74.14-.85,0-.92l-.19-.09a.11.11,0,0,1,0-.17,6.94,6.94,0,0,1,1.34-.32l0,.06c-.14.39-.24.68-.62,1.83Z" fill="#d4bc7c"/><path d="M78.43,91.87a12.43,12.43,0,0,1-.16,2.33h0a8.86,8.86,0,0,0,.88-1.83,9.26,9.26,0,0,0,.39-2c0-.3.18-.33.25-.33a.66.66,0,0,1,.3.1c.06,0,.09.09.09.21A8.47,8.47,0,0,1,79,93.62a14.38,14.38,0,0,1-1.73,2.55c-.79.9-1.32,1.07-1.65,1.08a.51.51,0,0,1-.56-.49.45.45,0,0,1,.42-.46.37.37,0,0,1,.29.17.35.35,0,0,0,.3.19,1,1,0,0,0,.58-.3,3.71,3.71,0,0,0,.93-1.59,10.22,10.22,0,0,0,.2-2.41c0-1.18-.21-1.59-.41-1.59s-.39.36-.61.8c-.11,0-.18,0-.2-.13.22-.71.69-1.37,1.2-1.37s.63,1.06.66,1.8" fill="#d4bc7c"/><path d="M78.43,91.87a12.43,12.43,0,0,1-.16,2.33h0a8.86,8.86,0,0,0,.88-1.83,9.26,9.26,0,0,0,.39-2c0-.3.18-.33.25-.33a.66.66,0,0,1,.3.1c.06,0,.09.09.09.21A8.47,8.47,0,0,1,79,93.62a14.38,14.38,0,0,1-1.73,2.55c-.79.9-1.32,1.07-1.65,1.08a.51.51,0,0,1-.56-.49.45.45,0,0,1,.42-.46.37.37,0,0,1,.29.17.35.35,0,0,0,.3.19,1,1,0,0,0,.58-.3,3.71,3.71,0,0,0,.93-1.59,10.22,10.22,0,0,0,.2-2.41c0-1.18-.21-1.59-.41-1.59s-.39.36-.61.8c-.11,0-.18,0-.2-.13.22-.71.69-1.37,1.2-1.37S78.4,91.13,78.43,91.87Z" fill="#d4bc7c"/><path d="M49.65,108.49,48,109.72l.65,2-1.7-1.23-1.7,1.23.65-2-1.69-1.23h2.09l.65-2,.65,2Z" fill="#d4bc7c"/><path d="M55.61,108.49l-1.7,1.23.66,2-1.7-1.23-1.71,1.23.65-2-1.69-1.23h2.09l.66-2,.65,2Z" fill="#d4bc7c"/><path d="M61.57,108.49l-1.7,1.23.65,2-1.7-1.23-1.7,1.23.65-2-1.69-1.23h2.09l.65-2,.65,2Z" fill="#d4bc7c"/><path d="M67.52,108.49l-1.69,1.23.65,2-1.7-1.23-1.71,1.23.66-2L62,108.49h2.1l.65-2,.65,2Z" fill="#d4bc7c"/><path d="M73.48,108.49l-1.7,1.23.65,2-1.7-1.23L69,111.72l.65-2L68,108.49h2.09l.65-2,.65,2Z" fill="#d4bc7c"/></svg>